# Blender 5.0.1
# www.blender.org
o Building2
v 1.617468 11.279020 -1.625815
v 1.617468 0.028517 -1.625815
v 1.617468 11.279020 1.625815
v 1.617468 0.028517 1.625815
v -1.617468 11.279020 -1.625815
v -1.617468 0.028517 -1.625815
v -1.617468 11.279020 1.625815
v -1.617468 0.028517 1.625815
v 0.000000 0.028517 -1.625815
v 0.000000 11.279020 1.625815
v 0.000000 0.028517 1.625815
v 0.000000 11.279020 -1.625815
v -1.617468 0.028517 0.000000
v 1.617468 11.279020 0.000000
v -1.617468 11.279020 0.000000
v 1.617468 0.028517 0.000000
v 0.000000 0.028517 0.000000
v 0.000000 11.279020 0.000000
v -1.617468 11.279020 -1.327947
v 1.617468 0.028517 -1.327947
v -1.617468 0.028517 -1.327947
v 1.617468 11.279020 -1.327947
v 0.000000 0.028517 -1.327947
v 0.000000 11.279020 -1.327947
v -1.303227 0.028517 -1.625815
v -1.303227 11.279020 1.625815
v -1.303227 0.028517 1.625815
v -1.303227 11.279020 -1.625815
v -1.303227 0.028517 0.000000
v -1.303227 11.279020 0.000000
v -1.303227 11.279020 -1.327947
v -1.303227 0.028517 -1.327947
vn -0.0000 1.0000 -0.0000
vn -0.0000 -0.0000 1.0000
vn -1.0000 -0.0000 -0.0000
vn -0.0000 -1.0000 -0.0000
vn 1.0000 -0.0000 -0.0000
vn -0.0000 -0.0000 -1.0000
vt 0.615137 0.453073
vt 0.617169 0.434326
vt 0.617169 0.453073
vt 0.647676 0.055108
vt 0.906896 0.042859
vt 0.906896 0.055108
vt 0.664730 0.504332
vt 0.894600 0.514832
vt 0.894600 0.504332
vt 0.898443 0.440743
vt 0.894600 0.400204
vt 0.894600 0.457518
vt 0.642716 0.440743
vt 0.898443 0.369217
vt 0.645994 0.106541
vt 0.904548 0.040718
vt 0.904548 0.106541
vt 0.645994 0.159577
vt 0.904548 0.159577
vt 0.647676 0.168952
vt 0.906896 0.105906
vt 0.906896 0.168952
vt 0.625598 0.453073
vt 0.636060 0.434326
vt 0.636060 0.453073
vt 0.625598 0.468386
vt 0.636060 0.468386
vt 0.642716 0.499164
vt 0.898443 0.499164
vt 0.664730 0.400204
vt 0.615137 0.468386
vt 0.617169 0.468386
vt 0.615137 0.471820
vt 0.617169 0.471820
vt 0.898443 0.512269
vt 0.642716 0.512269
vt 0.625598 0.471820
vt 0.636060 0.471820
vt 0.664730 0.457518
vt 0.645994 0.172365
vt 0.904548 0.172365
vt 0.647676 0.105906
vt 0.625598 0.434326
vt 0.615137 0.434326
vt 0.647676 0.042859
vt 0.664730 0.514832
vt 0.642716 0.369217
vt 0.645994 0.040718
s 0
f 15/1/1 26/2/1 30/3/1
f 26/4/2 8/5/2 27/6/2
f 19/7/3 6/8/3 21/9/3
f 16/10/4 11/11/4 17/12/4
f 14/13/5 4/14/5 16/10/5
f 12/15/6 2/16/6 9/17/6
f 28/18/6 9/17/6 25/19/6
f 17/12/4 27/11/4 29/12/4
f 3/20/2 11/21/2 4/22/2
f 18/23/1 3/24/1 14/25/1
f 24/26/1 14/25/1 22/27/1
f 23/9/4 29/12/4 32/9/4
f 22/28/5 16/10/5 20/29/5
f 20/29/4 17/12/4 23/9/4
f 7/30/3 13/12/3 8/11/3
f 19/31/1 30/3/1 31/32/1
f 5/33/1 31/32/1 28/34/1
f 2/35/4 23/9/4 9/8/4
f 1/36/5 20/29/5 2/35/5
f 9/8/4 32/9/4 25/8/4
f 12/37/1 22/27/1 1/38/1
f 15/39/3 21/9/3 13/12/3
f 25/8/4 21/9/4 6/8/4
f 28/34/1 24/26/1 12/37/1
f 24/26/1 30/3/1 18/23/1
f 32/9/4 13/12/4 21/9/4
f 29/12/4 8/11/4 13/12/4
f 5/40/6 25/19/6 6/41/6
f 10/42/2 27/6/2 11/21/2
f 30/3/1 10/43/1 18/23/1
f 15/1/1 7/44/1 26/2/1
f 26/4/2 7/45/2 8/5/2
f 19/7/3 5/46/3 6/8/3
f 16/10/4 4/14/4 11/11/4
f 14/13/5 3/47/5 4/14/5
f 12/15/6 1/48/6 2/16/6
f 28/18/6 12/15/6 9/17/6
f 17/12/4 11/11/4 27/11/4
f 3/20/2 10/42/2 11/21/2
f 18/23/1 10/43/1 3/24/1
f 24/26/1 18/23/1 14/25/1
f 23/9/4 17/12/4 29/12/4
f 22/28/5 14/13/5 16/10/5
f 20/29/4 16/10/4 17/12/4
f 7/30/3 15/39/3 13/12/3
f 19/31/1 15/1/1 30/3/1
f 5/33/1 19/31/1 31/32/1
f 2/35/4 20/29/4 23/9/4
f 1/36/5 22/28/5 20/29/5
f 9/8/4 23/9/4 32/9/4
f 12/37/1 24/26/1 22/27/1
f 15/39/3 19/7/3 21/9/3
f 25/8/4 32/9/4 21/9/4
f 28/34/1 31/32/1 24/26/1
f 24/26/1 31/32/1 30/3/1
f 32/9/4 29/12/4 13/12/4
f 29/12/4 27/11/4 8/11/4
f 5/40/6 28/18/6 25/19/6
f 10/42/2 26/4/2 27/6/2
f 30/3/1 26/2/1 10/43/1
