# Blender 5.0.1
# www.blender.org
o Building1
v 1.617468 11.279020 -1.625815
v 1.617468 0.028517 -1.625815
v 1.617468 11.279020 1.625815
v 1.617468 0.028517 1.625815
v -1.617468 11.279020 -1.625815
v -1.617468 0.028517 -1.625815
v -1.617468 11.279020 1.625815
v -1.617468 0.028517 1.625815
v 0.000000 0.028517 -1.625815
v 0.000000 11.279020 1.625815
v 0.000000 0.028517 1.625815
v 0.000000 11.279020 -1.625815
v -1.617468 0.028517 0.000000
v 1.617468 11.279020 0.000000
v -1.617468 11.279020 0.000000
v 1.617468 0.028517 0.000000
v 0.000000 0.028517 0.000000
v 0.000000 11.279020 0.000000
v -1.617468 11.279020 -1.327947
v 1.617468 0.028517 -1.327947
v -1.617468 0.028517 -1.327947
v 1.617468 11.279020 -1.327947
v 0.000000 0.028517 -1.327947
v 0.000000 11.279020 -1.327947
v -1.303227 0.028517 -1.625815
v -1.303227 11.279020 1.625815
v -1.303227 0.028517 1.625815
v -1.303227 11.279020 -1.625815
v -1.303227 0.028517 0.000000
v -1.303227 11.279020 0.000000
v -1.303227 11.279020 -1.327947
v -1.303227 0.028517 -1.327947
v 0.000000 12.195853 -1.327947
v 0.000000 12.195853 0.000000
v -1.303227 12.195853 0.000000
v -1.303227 12.195853 -1.327947
v 0.947992 11.258745 1.128741
v 0.947992 11.753559 1.128741
v 0.947992 11.258745 0.390778
v 0.947992 11.753559 0.390778
v 1.422792 11.258745 1.128741
v 1.422792 11.753559 1.128741
v 1.422792 11.258745 0.390778
v 1.422792 11.753559 0.390778
vn -0.0000 1.0000 -0.0000
vn -0.0000 -0.0000 1.0000
vn -1.0000 -0.0000 -0.0000
vn -0.0000 -1.0000 -0.0000
vn 1.0000 -0.0000 -0.0000
vn -0.0000 -0.0000 -1.0000
vt 0.615137 0.453073
vt 0.617169 0.434326
vt 0.617169 0.453073
vt 0.646404 0.058510
vt 0.904776 0.042859
vt 0.904776 0.055108
vt 0.643655 0.497437
vt 0.905226 0.509450
vt 0.905226 0.496960
vt 0.903785 0.440029
vt 0.894600 0.400204
vt 0.894600 0.457518
vt 0.642716 0.440743
vt 0.904720 0.369455
vt 0.644510 0.110321
vt 0.902429 0.040718
vt 0.903488 0.108053
vt 0.644086 0.162601
vt 0.903912 0.164112
vt 0.645768 0.171976
vt 0.905836 0.107418
vt 0.906260 0.173488
vt 0.625598 0.453073
vt 0.636060 0.434326
vt 0.636060 0.453073
vt 0.625598 0.468386
vt 0.636060 0.468386
vt 0.894600 0.504332
vt 0.642716 0.499164
vt 0.905120 0.496307
vt 0.643655 0.373589
vt 0.905493 0.438662
vt 0.906428 0.371446
vt 0.615137 0.468386
vt 0.617169 0.468386
vt 0.615137 0.471820
vt 0.617169 0.471820
vt 0.905120 0.509412
vt 0.894600 0.514832
vt 0.642716 0.512269
vt 0.625598 0.471820
vt 0.636060 0.471820
vt 0.643789 0.441043
vt 0.641216 0.410954
vt 0.610751 0.410954
vt 0.644086 0.175389
vt 0.903912 0.176901
vt 0.646192 0.109685
vt 0.625598 0.434326
vt 0.610751 0.487086
vt 0.641216 0.487086
vt 0.426798 0.527092
vt 0.433757 0.518773
vt 0.426798 0.518773
vt 0.433757 0.527092
vt 0.615137 0.434326
vt 0.646404 0.046261
vt 0.643655 0.509926
vt 0.643517 0.373265
vt 0.644722 0.044120
s 0
f 15/1/1 26/2/1 30/3/1
f 26/4/2 8/5/2 27/6/2
f 19/7/3 6/8/3 21/9/3
f 16/10/4 11/11/4 17/12/4
f 14/13/5 4/14/5 16/10/5
f 12/15/6 2/16/6 9/17/6
f 28/18/6 9/17/6 25/19/6
f 17/12/4 27/11/4 29/12/4
f 3/20/2 11/21/2 4/22/2
f 18/23/1 3/24/1 14/25/1
f 24/26/1 14/25/1 22/27/1
f 23/28/4 29/12/4 32/28/4
f 22/29/5 16/10/5 20/30/5
f 20/30/4 17/12/4 23/28/4
f 7/31/3 13/32/3 8/33/3
f 19/34/1 30/3/1 31/35/1
f 5/36/1 31/35/1 28/37/1
f 2/38/4 23/28/4 9/39/4
f 1/40/5 20/30/5 2/38/5
f 9/39/4 32/28/4 25/39/4
f 12/41/1 22/27/1 1/42/1
f 15/43/3 21/9/3 13/32/3
f 25/39/4 21/9/4 6/8/4
f 28/37/1 24/26/1 12/41/1
f 18/44/2 35/45/2 30/44/2
f 32/28/4 13/32/4 21/9/4
f 29/12/4 8/33/4 13/32/4
f 5/46/6 25/19/6 6/47/6
f 10/48/2 27/6/2 11/21/2
f 30/3/1 10/49/1 18/23/1
f 36/50/1 34/45/1 33/50/1
f 31/51/6 33/50/6 24/51/6
f 24/51/5 34/45/5 18/44/5
f 30/44/3 36/50/3 31/51/3
f 38/52/3 39/53/3 37/54/3
f 40/55/6 43/53/6 39/53/6
f 44/55/5 41/54/5 43/53/5
f 42/52/2 37/54/2 41/54/2
f 43/53/4 37/54/4 39/53/4
f 40/55/1 42/52/1 44/55/1
f 15/1/1 7/56/1 26/2/1
f 26/4/2 7/57/2 8/5/2
f 19/7/3 5/58/3 6/8/3
f 16/10/4 4/14/4 11/11/4
f 14/13/5 3/59/5 4/14/5
f 12/15/6 1/60/6 2/16/6
f 28/18/6 12/15/6 9/17/6
f 17/12/4 11/11/4 27/11/4
f 3/20/2 10/48/2 11/21/2
f 18/23/1 10/49/1 3/24/1
f 24/26/1 18/23/1 14/25/1
f 23/28/4 17/12/4 29/12/4
f 22/29/5 14/13/5 16/10/5
f 20/30/4 16/10/4 17/12/4
f 7/31/3 15/43/3 13/32/3
f 19/34/1 15/1/1 30/3/1
f 5/36/1 19/34/1 31/35/1
f 2/38/4 20/30/4 23/28/4
f 1/40/5 22/29/5 20/30/5
f 9/39/4 23/28/4 32/28/4
f 12/41/1 24/26/1 22/27/1
f 15/43/3 19/7/3 21/9/3
f 25/39/4 32/28/4 21/9/4
f 28/37/1 31/35/1 24/26/1
f 18/44/2 34/45/2 35/45/2
f 32/28/4 29/12/4 13/32/4
f 29/12/4 27/11/4 8/33/4
f 5/46/6 28/18/6 25/19/6
f 10/48/2 26/4/2 27/6/2
f 30/3/1 26/2/1 10/49/1
f 36/50/1 35/45/1 34/45/1
f 31/51/6 36/50/6 33/50/6
f 24/51/5 33/50/5 34/45/5
f 30/44/3 35/45/3 36/50/3
f 38/52/3 40/55/3 39/53/3
f 40/55/6 44/55/6 43/53/6
f 44/55/5 42/52/5 41/54/5
f 42/52/2 38/52/2 37/54/2
f 43/53/4 41/54/4 37/54/4
f 40/55/1 38/52/1 42/52/1
