# Blender 5.0.1
# www.blender.org
o Building3
v 1.617468 11.279020 -1.625815
v 1.617468 0.028517 -1.625815
v 1.617468 11.279020 1.625815
v 1.617468 0.028517 1.625815
v -1.617468 11.279020 -1.625815
v -1.617468 0.028517 -1.625815
v -1.617468 11.279020 1.625815
v -1.617468 0.028517 1.625815
v 0.000000 0.028517 -1.625815
v 0.000000 11.279020 1.625815
v 0.000000 0.028517 1.625815
v 0.000000 11.279020 -1.625815
v -1.617468 0.028517 0.000000
v 1.617468 11.279020 0.000000
v -1.617468 11.279020 0.000000
v 1.617468 0.028517 0.000000
v 0.000000 0.028517 0.000000
v 0.000000 11.279020 0.000000
v -1.617468 11.279020 -1.327947
v 1.617468 0.028517 -1.327947
v -1.617468 0.028517 -1.327947
v 1.617468 11.279020 -1.327947
v 0.000000 0.028517 -1.327947
v 0.000000 11.279020 -1.327947
v -1.303227 0.028517 -1.625815
v -1.303227 11.279020 1.625815
v -1.303227 0.028517 1.625815
v -1.303227 11.279020 -1.625815
v -1.303227 0.028517 0.000000
v -1.303227 11.279020 0.000000
v -1.303227 11.279020 -1.327947
v -1.303227 0.028517 -1.327947
vn -0.0000 1.0000 -0.0000
vn -0.0000 -0.0000 1.0000
vn -1.0000 -0.0000 -0.0000
vn -0.0000 -1.0000 -0.0000
vn 1.0000 -0.0000 -0.0000
vn -0.0000 -0.0000 -1.0000
vt 0.615137 0.453073
vt 0.617169 0.434326
vt 0.617169 0.453073
vt 0.163869 0.006637
vt 0.164046 0.572854
vt 0.158671 0.572854
vt 0.073615 0.572568
vt 0.082765 0.006035
vt 0.077389 0.006035
vt 0.898443 0.440743
vt 0.894600 0.400204
vt 0.894600 0.457518
vt 0.136973 0.005088
vt 0.164819 0.574079
vt 0.136172 0.575032
vt 0.049614 0.004213
vt 0.079174 0.573471
vt 0.050712 0.574291
vt 0.030296 0.004497
vt 0.025818 0.574438
vt 0.113917 0.006637
vt 0.134246 0.573450
vt 0.105748 0.573985
vt 0.625598 0.453073
vt 0.636060 0.434326
vt 0.636060 0.453073
vt 0.625598 0.468386
vt 0.636060 0.468386
vt 0.894600 0.504332
vt 0.114910 0.003303
vt 0.110503 0.575270
vt 0.898443 0.499164
vt 0.020798 0.573507
vt 0.050615 0.006035
vt 0.025886 0.006413
vt 0.615137 0.468386
vt 0.617169 0.468386
vt 0.615137 0.471820
vt 0.617169 0.471820
vt 0.898443 0.512269
vt 0.894600 0.514832
vt 0.109661 0.003303
vt 0.105254 0.575270
vt 0.625598 0.471820
vt 0.636060 0.471820
vt 0.050933 0.573413
vt 0.024739 0.004497
vt 0.020261 0.574438
vt 0.141580 0.006637
vt 0.625598 0.434326
vt 0.615137 0.434326
vt 0.169243 0.006637
vt 0.078991 0.572568
vt 0.898443 0.369217
vt 0.168692 0.004374
vt 0.083848 0.004330
s 0
f 15/1/1 26/2/1 30/3/1
f 26/4/2 8/5/2 27/6/2
f 19/7/3 6/8/3 21/9/3
f 16/10/4 11/11/4 17/12/4
f 14/13/5 4/14/5 16/15/5
f 12/16/6 2/17/6 9/18/6
f 28/19/6 9/18/6 25/20/6
f 17/12/4 27/11/4 29/12/4
f 3/21/2 11/22/2 4/23/2
f 18/24/1 3/25/1 14/26/1
f 24/27/1 14/26/1 22/28/1
f 23/29/4 29/12/4 32/29/4
f 22/30/5 16/15/5 20/31/5
f 20/32/4 17/12/4 23/29/4
f 7/33/3 13/34/3 8/35/3
f 19/36/1 30/3/1 31/37/1
f 5/38/1 31/37/1 28/39/1
f 2/40/4 23/29/4 9/41/4
f 1/42/5 20/31/5 2/43/5
f 9/41/4 32/29/4 25/41/4
f 12/44/1 22/28/1 1/45/1
f 15/46/3 21/9/3 13/34/3
f 25/41/4 21/29/4 6/41/4
f 28/39/1 24/27/1 12/44/1
f 24/27/1 30/3/1 18/24/1
f 32/29/4 13/12/4 21/29/4
f 29/12/4 8/11/4 13/12/4
f 5/47/6 25/20/6 6/48/6
f 10/49/2 27/6/2 11/22/2
f 30/3/1 10/50/1 18/24/1
f 15/1/1 7/51/1 26/2/1
f 26/4/2 7/52/2 8/5/2
f 19/7/3 5/53/3 6/8/3
f 16/10/4 4/54/4 11/11/4
f 14/13/5 3/55/5 4/14/5
f 12/16/6 1/56/6 2/17/6
f 28/19/6 12/16/6 9/18/6
f 17/12/4 11/11/4 27/11/4
f 3/21/2 10/49/2 11/22/2
f 18/24/1 10/50/1 3/25/1
f 24/27/1 18/24/1 14/26/1
f 23/29/4 17/12/4 29/12/4
f 22/30/5 14/13/5 16/15/5
f 20/32/4 16/10/4 17/12/4
f 7/33/3 15/46/3 13/34/3
f 19/36/1 15/1/1 30/3/1
f 5/38/1 19/36/1 31/37/1
f 2/40/4 20/32/4 23/29/4
f 1/42/5 22/30/5 20/31/5
f 9/41/4 23/29/4 32/29/4
f 12/44/1 24/27/1 22/28/1
f 15/46/3 19/7/3 21/9/3
f 25/41/4 32/29/4 21/29/4
f 28/39/1 31/37/1 24/27/1
f 24/27/1 31/37/1 30/3/1
f 32/29/4 29/12/4 13/12/4
f 29/12/4 27/11/4 8/11/4
f 5/47/6 28/19/6 25/20/6
f 10/49/2 26/4/2 27/6/2
f 30/3/1 26/2/1 10/50/1
