# Blender 5.0.1
# www.blender.org
o Building4.001
v -1.625815 11.279020 -1.617468
v -1.625815 0.028517 -1.617468
v 1.625815 11.279020 -1.617468
v 1.625815 0.028517 -1.617468
v -1.625815 11.279020 1.617468
v -1.625815 0.028517 1.617468
v 1.625815 11.279020 1.617468
v 1.625815 0.028517 1.617468
v -1.625815 0.028517 0.000000
v 1.625815 11.279020 -0.000000
v 1.625815 0.028517 -0.000000
v -1.625815 11.279020 0.000000
v 0.000000 0.028517 1.617468
v -0.000000 11.279020 -1.617468
v 0.000000 11.279020 1.617468
v -0.000000 0.028517 -1.617468
v 0.000000 0.028517 0.000000
v 0.000000 11.279020 0.000000
v -1.327946 11.279020 1.617468
v -1.327947 0.028517 -1.617468
v -1.327946 0.028517 1.617468
v -1.327947 11.279020 -1.617468
v -1.327947 0.028517 0.000000
v -1.327947 11.279020 0.000000
v -1.625815 0.028517 1.303228
v 1.625815 11.279020 1.303227
v 1.625815 0.028517 1.303227
v -1.625815 11.279020 1.303228
v 0.000000 0.028517 1.303227
v 0.000000 11.279020 1.303227
v -1.327947 11.279020 1.303227
v -1.327947 0.028517 1.303227
v 0.879829 11.242356 0.125971
v 0.879829 11.696306 0.125971
v 0.078759 11.242356 0.125971
v 0.078759 11.696306 0.125971
v 0.879829 11.242356 -0.420507
v 0.879829 11.696306 -0.420507
v 0.078759 11.242356 -0.420507
v 0.078759 11.696306 -0.420507
vn -0.0000 1.0000 -0.0000
vn 1.0000 -0.0000 -0.0000
vn -0.0000 -0.0000 1.0000
vn -0.0000 -1.0000 -0.0000
vn -0.0000 -0.0000 -1.0000
vn -1.0000 -0.0000 -0.0000
vt 0.005849 0.749827
vt 0.006512 0.743704
vt 0.006512 0.749827
vt 0.269536 0.962145
vt 0.011018 0.970584
vt 0.011018 0.958834
vt 0.010568 0.955725
vt 0.268569 0.973114
vt 0.268569 0.960963
vt 0.898443 0.440743
vt 0.894600 0.400204
vt 0.894600 0.457518
vt 0.267434 0.884467
vt 0.011001 0.970259
vt 0.010318 0.888667
vt 0.267103 0.890775
vt 0.010213 0.968053
vt 0.010292 0.894632
vt 0.265935 0.822712
vt 0.008957 0.815475
vt 0.265644 0.808993
vt 0.009482 0.896244
vt 0.007697 0.811200
vt 0.009265 0.749827
vt 0.012682 0.743704
vt 0.012682 0.749827
vt 0.009265 0.754829
vt 0.012682 0.754829
vt 0.894600 0.504332
vt 0.266468 0.822735
vt 0.008663 0.817904
vt 0.898443 0.499164
vt 0.009232 0.811895
vt 0.267500 0.889171
vt 0.265898 0.809514
vt 0.005849 0.754829
vt 0.006512 0.754829
vt 0.005849 0.755950
vt 0.006512 0.755950
vt 0.898443 0.512269
vt 0.894600 0.514832
vt 0.266468 0.812072
vt 0.008663 0.808785
vt 0.009265 0.755950
vt 0.012682 0.755950
vt 0.010300 0.892981
vt 0.265935 0.811272
vt 0.009851 0.812348
vt 0.268087 0.895140
vt 0.009265 0.743704
vt 0.426214 0.524313
vt 0.434362 0.514170
vt 0.426214 0.514170
vt 0.434362 0.524313
vt 0.005849 0.743704
vt 0.269536 0.973894
vt 0.010568 0.967876
vt 0.898443 0.369217
vt 0.269651 0.974082
vt 0.269342 0.974005
s 0
f 15/1/1 26/2/1 30/3/1
f 26/4/2 8/5/2 27/6/2
f 19/7/3 6/8/3 21/9/3
f 16/10/4 11/11/4 17/12/4
f 14/13/5 4/14/5 16/15/5
f 12/16/6 2/17/6 9/18/6
f 28/19/6 9/18/6 25/20/6
f 17/12/4 27/11/4 29/12/4
f 3/21/2 11/22/2 4/23/2
f 18/24/1 3/25/1 14/26/1
f 24/27/1 14/26/1 22/28/1
f 23/29/4 29/12/4 32/29/4
f 22/30/5 16/15/5 20/31/5
f 20/32/4 17/12/4 23/29/4
f 7/33/3 13/34/3 8/35/3
f 19/36/1 30/3/1 31/37/1
f 5/38/1 31/37/1 28/39/1
f 2/40/4 23/29/4 9/41/4
f 1/42/5 20/31/5 2/43/5
f 9/41/4 32/29/4 25/41/4
f 12/44/1 22/28/1 1/45/1
f 15/46/3 21/9/3 13/34/3
f 25/41/4 21/9/4 6/8/4
f 28/39/1 24/27/1 12/44/1
f 24/27/1 30/3/1 18/24/1
f 32/29/4 13/34/4 21/9/4
f 29/12/4 8/35/4 13/34/4
f 5/47/6 25/20/6 6/48/6
f 10/49/2 27/6/2 11/22/2
f 30/3/1 10/50/1 18/24/1
f 34/51/3 35/52/3 33/53/3
f 36/54/6 39/52/6 35/52/6
f 40/54/5 37/53/5 39/52/5
f 38/51/2 33/53/2 37/53/2
f 39/52/4 33/53/4 35/52/4
f 36/54/1 38/51/1 40/54/1
f 15/1/1 7/55/1 26/2/1
f 26/4/2 7/56/2 8/5/2
f 19/7/3 5/57/3 6/8/3
f 16/10/4 4/58/4 11/11/4
f 14/13/5 3/59/5 4/14/5
f 12/16/6 1/60/6 2/17/6
f 28/19/6 12/16/6 9/18/6
f 17/12/4 11/11/4 27/11/4
f 3/21/2 10/49/2 11/22/2
f 18/24/1 10/50/1 3/25/1
f 24/27/1 18/24/1 14/26/1
f 23/29/4 17/12/4 29/12/4
f 22/30/5 14/13/5 16/15/5
f 20/32/4 16/10/4 17/12/4
f 7/33/3 15/46/3 13/34/3
f 19/36/1 15/1/1 30/3/1
f 5/38/1 19/36/1 31/37/1
f 2/40/4 20/32/4 23/29/4
f 1/42/5 22/30/5 20/31/5
f 9/41/4 23/29/4 32/29/4
f 12/44/1 24/27/1 22/28/1
f 15/46/3 19/7/3 21/9/3
f 25/41/4 32/29/4 21/9/4
f 28/39/1 31/37/1 24/27/1
f 24/27/1 31/37/1 30/3/1
f 32/29/4 29/12/4 13/34/4
f 29/12/4 27/11/4 8/35/4
f 5/47/6 28/19/6 25/20/6
f 10/49/2 26/4/2 27/6/2
f 30/3/1 26/2/1 10/50/1
f 34/51/3 36/54/3 35/52/3
f 36/54/6 40/54/6 39/52/6
f 40/54/5 38/51/5 37/53/5
f 38/51/2 34/51/2 33/53/2
f 39/52/4 37/53/4 33/53/4
f 36/54/1 34/51/1 38/51/1
